<?xml version="1.0" encoding="iso-8859-1"?>
<!-- Generator: Adobe Illustrator 19.0.0, SVG Export Plug-In . SVG Version: 6.00 Build 0)  -->
<svg version="1.1" id="Layer_1" xmlns="http://www.w3.org/2000/svg" xmlns:xlink="http://www.w3.org/1999/xlink" x="0px" y="0px"
	 viewBox="0 0 300 300" style="enable-background:new 0 0 300 300;" xml:space="preserve">
<g>
	<g>
		<g>
			<path d="M186.987,66.294c-0.925-2.138-2.944-3.594-5.263-3.775c-2.394-0.181-4.563,0.956-5.787,2.919l-27.994,44.8
				l-25.987-15.594c-1.456-0.862-3.206-1.112-4.844-0.662c-1.638,0.444-3.031,1.537-3.85,3.031l-30.75,56.25
				c-1.056,1.925-1.013,4.275,0.119,6.175c1.119,1.888,3.156,3.063,5.369,3.063h130.556c2.1,0,4.056-1.056,5.206-2.813
				c1.162-1.744,1.356-3.956,0.537-5.894L186.987,66.294z M98.55,150l22.581-41.3l25.669,15.406c2.925,1.744,6.7,0.837,8.506-2.044
				l24.9-39.844L209.1,150H98.55z"/>
			<path d="M106.25,81.25c10.338,0,18.75-8.412,18.75-18.75s-8.412-18.75-18.75-18.75S87.5,52.162,87.5,62.5
				S95.912,81.25,106.25,81.25z M106.25,56.25c3.45,0,6.25,2.8,6.25,6.25s-2.8,6.25-6.25,6.25S100,65.95,100,62.5
				S102.8,56.25,106.25,56.25z"/>
			<path d="M268.75,0H31.25C27.794,0,25,2.794,25,6.25v287.5c0,3.456,2.794,6.25,6.25,6.25h237.5c3.456,0,6.25-2.794,6.25-6.25V6.25
				C275,2.794,272.206,0,268.75,0z M262.5,287.5h-225v-275h225V287.5z"/>
			<path d="M56.25,200h187.5c3.456,0,6.25-2.794,6.25-6.25V31.25c0-3.456-2.794-6.25-6.25-6.25H56.25C52.794,25,50,27.794,50,31.25
				v162.5C50,197.206,52.794,200,56.25,200z M62.5,37.5h175v150h-175V37.5z"/>
			<path d="M68.75,237.5h50c3.456,0,6.25-2.794,6.25-6.25s-2.794-6.25-6.25-6.25h-50c-3.456,0-6.25,2.794-6.25,6.25
				S65.294,237.5,68.75,237.5z"/>
			<path d="M206.25,250H68.75c-3.456,0-6.25,2.794-6.25,6.25s2.794,6.25,6.25,6.25h137.5c3.456,0,6.25-2.794,6.25-6.25
				S209.706,250,206.25,250z"/>
		</g>
	</g>
</g>
<g>
</g>
<g>
</g>
<g>
</g>
<g>
</g>
<g>
</g>
<g>
</g>
<g>
</g>
<g>
</g>
<g>
</g>
<g>
</g>
<g>
</g>
<g>
</g>
<g>
</g>
<g>
</g>
<g>
</g>
</svg>
